<svg width="448" height="606" viewBox="0 0 448 606" fill="none" xmlns="http://www.w3.org/2000/svg">
<g opacity="0.35" filter="url(#filter0_d_6_28)">
<clipPath id='createMask'>
<path d="M82.8326 122.94C82.8326 130.539 85.3346 136.377 90.3386 140.454C95.5279 144.531 102.478 146.57 111.189 146.57C118.973 146.57 124.718 145.273 128.425 142.678C132.131 140.083 135.282 136.191 137.877 131.002C140.286 126.183 143.529 123.774 147.607 123.774H207.655C209.323 123.774 210.713 124.423 211.825 125.72C213.122 126.832 213.771 128.222 213.771 129.89C213.771 141.195 209.971 152.315 202.373 163.25C194.774 173.999 183.191 182.988 167.623 190.216C152.24 197.259 133.429 200.78 111.189 200.78C91.3579 200.78 73.6586 197.815 58.0906 191.884C42.7079 185.768 30.4759 176.501 21.3946 164.084C12.3133 151.481 7.77259 135.821 7.77259 117.102V84.298C7.77259 65.5793 12.3133 50.0113 21.3946 37.594C30.4759 24.9913 42.7079 15.7247 58.0906 9.79399C73.6586 3.67799 91.3579 0.619989 111.189 0.619989C133.429 0.619989 152.24 4.23399 167.623 11.462C183.191 18.5047 194.774 27.4933 202.373 38.428C209.971 49.1773 213.771 60.2047 213.771 71.51C213.771 73.178 213.122 74.6607 211.825 75.958C210.713 77.07 209.323 77.626 207.655 77.626H147.607C143.529 77.626 140.286 75.2167 137.877 70.398C135.282 65.2087 132.131 61.3167 128.425 58.722C124.718 56.1273 118.973 54.83 111.189 54.83C102.478 54.83 95.5279 56.8687 90.3386 60.946C85.3346 65.0233 82.8326 70.8613 82.8326 78.46V122.94ZM441.066 189.382C441.437 190.123 441.622 190.957 441.622 191.884C441.622 193.552 440.973 195.035 439.676 196.332C438.564 197.444 437.174 198 435.506 198H372.4C369.805 198 367.396 197.351 365.172 196.054C363.133 194.757 361.651 193.089 360.724 191.05L336.26 136.006H312.908V190.494C312.908 192.533 312.167 194.293 310.684 195.776C309.201 197.259 307.441 198 305.402 198H245.354C243.315 198 241.555 197.259 240.072 195.776C238.589 194.293 237.848 192.533 237.848 190.494V10.906C237.848 8.86733 238.589 7.10666 240.072 5.62399C241.555 4.14132 243.315 3.39999 245.354 3.39999H353.496C370.176 3.39999 384.725 6.08732 397.142 11.462C409.745 16.8367 419.382 24.6207 426.054 34.814C432.726 45.0073 436.062 56.9613 436.062 70.676C436.062 95.8813 426.332 114.137 406.872 125.442L441.066 189.382ZM347.658 84.576C351.735 84.576 354.886 83.2787 357.11 80.684C359.334 77.904 360.446 74.4753 360.446 70.398C360.446 66.3207 359.334 62.7993 357.11 59.834C355.071 56.6833 351.921 55.108 347.658 55.108H312.908V84.576H347.658ZM198.481 343.79C200.519 343.79 202.28 344.531 203.763 346.014C205.245 347.497 205.987 349.257 205.987 351.296V390.494C205.987 392.533 205.245 394.293 203.763 395.776C202.28 397.259 200.519 398 198.481 398H22.7846C20.7459 398 18.9853 397.259 17.5026 395.776C16.0199 394.293 15.2786 392.533 15.2786 390.494V210.906C15.2786 208.867 16.0199 207.107 17.5026 205.624C18.9853 204.141 20.7459 203.4 22.7846 203.4H195.701C197.739 203.4 199.5 204.141 200.983 205.624C202.465 207.107 203.207 208.867 203.207 210.906V250.104C203.207 252.143 202.465 253.903 200.983 255.386C199.5 256.869 197.739 257.61 195.701 257.61H87.5586V275.124H180.411C182.449 275.124 184.21 275.865 185.693 277.348C187.175 278.831 187.917 280.591 187.917 282.63V318.77C187.917 320.809 187.175 322.569 185.693 324.052C184.21 325.535 182.449 326.276 180.411 326.276H87.5586V343.79H198.481ZM290.668 388.548C288.259 394.849 284.089 398 278.158 398H225.616C223.948 398 222.465 397.444 221.168 396.332C220.056 395.035 219.5 393.552 219.5 391.884L219.778 390.216L280.382 212.574C281.123 210.165 282.513 208.033 284.552 206.18C286.591 204.327 289.371 203.4 292.892 203.4H370.176C373.697 203.4 376.477 204.327 378.516 206.18C380.555 208.033 381.945 210.165 382.686 212.574L443.29 390.216L443.568 391.884C443.568 393.552 442.919 395.035 441.622 396.332C440.51 397.444 439.12 398 437.452 398H384.91C378.979 398 374.809 394.849 372.4 388.548L365.45 369.088H297.618L290.668 388.548ZM331.534 257.054L311.796 314.878H351.272L331.534 257.054ZM204.319 403.4C206.357 403.4 208.118 404.141 209.601 405.624C211.083 407.107 211.825 408.867 211.825 410.906V455.664C211.825 457.703 211.083 459.463 209.601 460.946C208.118 462.429 206.357 463.17 204.319 463.17H144.549V590.494C144.549 592.533 143.807 594.293 142.325 595.776C140.842 597.259 139.081 598 137.043 598H79.7746C77.7359 598 75.9753 597.259 74.4926 595.776C73.0099 594.293 72.2686 592.533 72.2686 590.494V463.17H12.4986C10.4599 463.17 8.69926 462.429 7.21659 460.946C5.73393 459.463 4.99259 457.703 4.99259 455.664V410.906C4.99259 408.867 5.73393 407.107 7.21659 405.624C8.69926 404.141 10.4599 403.4 12.4986 403.4H204.319ZM420.772 543.79C422.811 543.79 424.571 544.531 426.054 546.014C427.537 547.497 428.278 549.257 428.278 551.296V590.494C428.278 592.533 427.537 594.293 426.054 595.776C424.571 597.259 422.811 598 420.772 598H245.076C243.037 598 241.277 597.259 239.794 595.776C238.311 594.293 237.57 592.533 237.57 590.494V410.906C237.57 408.867 238.311 407.107 239.794 405.624C241.277 404.141 243.037 403.4 245.076 403.4H417.992C420.031 403.4 421.791 404.141 423.274 405.624C424.757 407.107 425.498 408.867 425.498 410.906V450.104C425.498 452.143 424.757 453.903 423.274 455.386C421.791 456.869 420.031 457.61 417.992 457.61H309.85V475.124H402.702C404.741 475.124 406.501 475.865 407.984 477.348C409.467 478.831 410.208 480.591 410.208 482.63V518.77C410.208 520.809 409.467 522.569 407.984 524.052C406.501 525.535 404.741 526.276 402.702 526.276H309.85V543.79H420.772Z" fill="black"/>
</clipPath>
</g>
<defs>
<filter id="filter0_d_6_28" x="0.992584" y="0.619995" width="446.575" height="605.38" filterUnits="userSpaceOnUse" color-interpolation-filters="sRGB">
<feFlood flood-opacity="0" result="BackgroundImageFix"/>
<feColorMatrix in="SourceAlpha" type="matrix" values="0 0 0 0 0 0 0 0 0 0 0 0 0 0 0 0 0 0 127 0" result="hardAlpha"/>
<feOffset dy="4"/>
<feGaussianBlur stdDeviation="2"/>
<feComposite in2="hardAlpha" operator="out"/>
<feColorMatrix type="matrix" values="0 0 0 0 0 0 0 0 0 0 0 0 0 0 0 0 0 0 0.25 0"/>
<feBlend mode="normal" in2="BackgroundImageFix" result="effect1_dropShadow_6_28"/>
<feBlend mode="normal" in="SourceGraphic" in2="effect1_dropShadow_6_28" result="shape"/>
</filter>
</defs>
</svg>
